<?xml version="1.0" encoding="UTF-8"?>
<!--Generator: Apple Native CoreSVG 326-->
<!DOCTYPE svg
PUBLIC "-//W3C//DTD SVG 1.1//EN"
       "http://www.w3.org/Graphics/SVG/1.1/DTD/svg11.dtd">
<svg version="1.1" xmlns="http://www.w3.org/2000/svg" xmlns:xlink="http://www.w3.org/1999/xlink" viewBox="0 0 18.6328 25.582">
 <g>
  <rect height="25.582" opacity="0" width="18.6328" x="0" y="0"/>
  <path d="M0 12.7852C0 13.1133 0.128906 13.3945 0.375 13.6406L12.4219 25.2305C12.6445 25.4414 12.9258 25.5703 13.2539 25.5703C13.9102 25.5703 14.4258 25.0664 14.4258 24.3984C14.4258 24.0703 14.2969 23.7891 14.0859 23.5781L2.85938 12.7852L14.0859 1.98047C14.2969 1.76953 14.4258 1.47656 14.4258 1.16016C14.4258 0.492188 13.9102 0 13.2539 0C12.9258 0 12.6445 0.117188 12.4219 0.339844L0.375 11.9297C0.128906 12.1641 0 12.4453 0 12.7852Z" fill="currentColor" fill-opacity="0.85"/>
 </g>
</svg>
